<svg width="368" height="298" viewBox="0 0 368 298" fill="none" xmlns="http://www.w3.org/2000/svg">
<path d="M181.841 25.8892L122.1 88.8387L43.7613 126.218C42.1806 126.962 41.5297 128.914 42.3666 130.495L83.7905 206.741L95.0879 292.797C95.3204 294.564 96.9941 295.772 98.7143 295.447L184.026 279.64L269.338 295.447C271.058 295.772 272.732 294.564 272.964 292.797L284.262 206.741L325.686 130.495C326.523 128.961 325.918 127.008 324.291 126.218L246.046 88.8387L186.304 25.8892C185.095 24.5874 183.05 24.5874 181.841 25.8892Z" fill="#6EDBFF" stroke="white" stroke-width="2" stroke-linecap="round" stroke-linejoin="round"/>
<path d="M198.857 183.31C193.278 181.961 175.611 166.898 170.776 169.873C165.011 172.849 182.91 191.678 186.537 195.025C185.746 197.303 184.491 201.674 184.956 206.23C185.793 214.784 190.814 220.317 192.581 222.083" fill="#6EDBFF"/>
<path d="M189.419 218.271C189.419 218.318 188.536 215.296 188.257 211.576C187.745 204.696 189.558 197.954 188.582 194.561C187.699 189.818 169.242 173.5 173.984 169.641C160.269 167.874 182.91 191.678 186.536 195.025C181.98 207.904 188.164 216.272 189.419 218.271Z" fill="white"/>
<path d="M198.485 187.866C193.603 180.752 175.611 166.944 170.776 169.873C165.011 172.849 182.91 191.678 186.537 195.025C185.746 197.303 184.491 201.674 184.956 206.23C185.467 211.39 187.513 215.435 189.419 218.271" stroke="black" stroke-width="1.2" stroke-miterlimit="10" stroke-linecap="round" stroke-linejoin="round"/>
<path d="M225.171 181.171C200.763 202.139 180.539 225.617 164.779 250.397C162.594 253.791 158.13 254.906 154.597 252.907C153.249 252.163 151.901 251.373 150.552 250.629C146.972 248.677 146.693 244.213 148.739 240.634C163.756 214.877 182.213 190.33 206.11 168.06C209.411 164.992 215.594 164.713 219.639 167.502C221.173 168.572 222.707 169.641 224.241 170.71C228.193 173.593 228.519 178.288 225.171 181.171Z" fill="#6EDBFF" stroke="white" stroke-width="1.2" stroke-miterlimit="10" stroke-linecap="round" stroke-linejoin="round"/>
<path d="M225.171 181.171C200.763 202.138 180.539 225.616 164.779 250.396C162.594 253.79 162.594 260.671 159.107 258.672C157.758 257.928 155.062 256.812 153.714 256.068C150.134 254.116 144.834 247.746 148.972 239.424C164.221 208.973 182.213 190.376 206.11 168.106C209.41 165.038 215.594 164.759 219.639 167.549C221.173 168.618 222.707 169.687 224.241 170.756C228.193 173.592 228.518 178.288 225.171 181.171Z" fill="black" stroke="#6EDBFF" stroke-width="1.2" stroke-miterlimit="10" stroke-linecap="round" stroke-linejoin="round"/>
<path d="M231.634 187.726C207.226 208.694 187.002 232.172 171.241 256.952C169.056 260.346 163.849 261.043 160.316 259.044C158.968 258.3 158.41 257.975 157.015 257.231C153.435 255.278 152.04 250.815 154.086 247.282C169.103 221.525 188.676 196.931 212.526 174.708C215.827 171.64 222.01 171.361 226.055 174.151C227.589 175.22 229.123 176.289 230.657 177.358C234.656 180.194 234.981 184.89 231.634 187.726Z" fill="#6EDBFF" stroke="black" stroke-width="1.2" stroke-miterlimit="10"/>
<path d="M231.634 187.726C207.226 208.694 187.885 230.777 172.125 255.604C169.94 258.998 165.058 261.043 161.06 259.509C159.618 258.951 158.363 257.975 157.015 257.231C153.435 255.278 152.04 250.815 154.086 247.282C169.103 221.525 188.676 196.931 212.526 174.708C215.827 171.64 222.01 171.361 226.055 174.151C227.589 175.22 229.123 176.289 230.657 177.358C234.656 180.194 234.981 184.89 231.634 187.726Z" stroke="black" stroke-width="1.2" stroke-miterlimit="10" stroke-linecap="round" stroke-linejoin="round"/>
<path d="M207.551 56.1086C207.551 56.1086 209.503 59.8279 209.132 58.7122C206.807 51.4595 227.31 113.619 270.919 143.606L250.927 165.596L163.57 103.669L203.088 52.0639" fill="black"/>
<path d="M207.551 56.1086C207.551 56.1086 209.503 59.8279 209.132 58.7122C206.807 51.4595 227.31 113.619 270.919 143.606L250.927 165.596L163.57 103.669L203.088 52.0639" stroke="black" stroke-width="1.2" stroke-miterlimit="10" stroke-linecap="round" stroke-linejoin="round"/>
<path d="M270.779 142.815C262.782 136.818 248.184 142.815 238.142 156.205L167.8 98.137L128.282 149.743L133.489 153.741C133.489 153.741 133.815 153.741 134.419 153.787C141.811 154.113 192.115 157.367 231.912 188.842C232.609 189.818 233.4 190.655 234.329 191.353C242.326 197.35 256.924 191.353 267.013 177.916C277.055 164.527 278.775 148.766 270.779 142.815Z" fill="black"/>
<path d="M193.585 122.369C214.128 94.9913 218.944 63.9144 204.341 52.9571C189.738 41.9999 161.246 55.3115 140.703 82.6896C120.16 110.068 115.345 141.145 129.948 152.102C144.551 163.059 173.042 149.747 193.585 122.369Z" fill="#6EDBFF" stroke="white" stroke-width="1.2" stroke-miterlimit="10" stroke-linecap="round" stroke-linejoin="round"/>
<path d="M149.483 155.275C148.786 154.903 146.368 153.462 145.717 152.997C132.328 142.955 135.907 115.618 153.667 91.9536C171.427 68.2894 196.672 57.2244 210.061 67.2666C212.154 68.8473 213.827 70.8464 215.129 73.2175" stroke="black" stroke-width="1.2" stroke-miterlimit="10" stroke-linecap="round" stroke-linejoin="round"/>
<path d="M166.22 210.832L164.686 210.507C162.873 209.763 159.898 209.344 158.456 213.064C155.434 220.688 153.621 231.428 158.828 232.59C160.409 232.916 164.314 232.218 168.034 219.665C168.824 218.736 169.661 217.852 170.451 216.922" fill="#6EDBFF"/>
<path d="M164.64 210.507C161.804 209.159 159.386 210.507 158.41 213.064C156.132 218.782 154.551 226.268 156.085 230.126C156.643 231.382 160.316 211.158 164.64 210.507Z" fill="white"/>
<path d="M166.22 210.832L164.686 210.507C162.873 209.763 159.898 209.344 158.456 213.064C155.434 220.688 153.621 231.428 158.828 232.59C160.409 232.916 164.314 232.218 168.034 219.665C168.824 218.736 169.661 217.852 170.451 216.922" stroke="black" stroke-width="1.2" stroke-miterlimit="10" stroke-linecap="round" stroke-linejoin="round"/>
<path d="M174.495 188.191C174.03 188.331 170.776 189.26 169.148 192.608C167.382 196.234 169.055 199.628 169.288 200C172.914 206.648 178.307 215.946 183.7 211.111C186.862 208.275 186.35 202.324 177.145 193.538" fill="#6EDBFF"/>
<path d="M171.613 198.512L169.288 200C166.871 201.953 163.337 206.369 165.104 212.878C167.94 223.478 174.263 225.524 177.192 223.292C179.842 221.293 179.842 216.69 178.633 211.995C178.773 209.763 178.912 207.578 179.051 205.346" fill="#6EDBFF"/>
<path d="M172.124 189.26C171.52 189.865 169.939 190.795 169.148 192.608C167.521 196.281 169.055 199.628 169.288 200C172.635 206.183 177.563 214.691 182.585 211.902C182.956 211.716 171.659 207.485 172.124 189.26Z" fill="white"/>
<path d="M169.288 200C164.034 204.231 164.313 209.903 165.104 212.878C167.335 221.2 171.705 224.269 174.913 224.083C175.75 224.036 163.29 216.783 169.288 200Z" fill="white"/>
<path d="M178.725 187.029C175.517 186.471 170.775 188.749 169.148 192.096C167.381 195.723 168.776 198.652 169.287 199.488C172.914 206.137 178.307 215.435 183.7 210.6C186.861 207.764 186.35 201.813 177.144 193.026" stroke="black" stroke-width="1.2" stroke-miterlimit="10" stroke-linecap="round" stroke-linejoin="round"/>
<path d="M169.288 199.489C166.871 201.395 163.337 205.858 165.104 212.367C167.94 222.967 174.263 225.012 177.192 222.781C179.842 220.782 179.842 216.179 178.633 211.483" stroke="black" stroke-width="1.2" stroke-miterlimit="10" stroke-linecap="round" stroke-linejoin="round"/>
<path d="M222.288 245.794C221.823 256.906 204.25 280.616 191.883 278.989C193.882 282.429 201.088 288.706 204.575 291.356C218.941 292.472 234.794 264.019 234.887 256.627C230.517 253.605 224.194 249.095 222.288 245.794Z" fill="black" stroke="black" stroke-width="1.2" stroke-miterlimit="10" stroke-linecap="round" stroke-linejoin="round"/>
<path d="M227.224 260.997C228.183 260.069 228.222 258.553 227.311 257.612C226.4 256.672 224.884 256.662 223.925 257.591C222.966 258.52 222.927 260.036 223.838 260.976C224.749 261.917 226.265 261.926 227.224 260.997Z" fill="white"/>
<path d="M213.967 237.89C213.967 237.89 215.687 215.017 222.987 206.555C230.286 198.094 229.728 192.608 209.923 208.089C190.117 223.571 195.138 233.288 195.138 233.288" fill="#6EDBFF"/>
<path d="M172.776 244.725C173.055 247.607 175.658 267.878 190.024 278.059C205.552 289.031 222.057 248.956 221.964 244.028C221.871 239.099 219.314 234.264 218.663 221.014C218.059 207.764 229.403 187.633 220.43 189.632C216.106 190.609 211.968 194.468 209.225 198.094C203.553 205.672 203.46 212.181 203.786 214.133C203.925 215.156 189.234 226.082 188.955 239.518" fill="#6EDBFF"/>
<path d="M172.776 244.725C173.055 247.607 175.658 267.878 190.024 278.059C205.552 289.031 222.057 248.956 221.964 244.028C221.871 239.099 219.314 234.264 218.663 221.014C218.059 207.764 229.403 187.633 220.43 189.632C216.106 190.609 211.968 194.468 209.225 198.094C203.553 205.672 203.46 212.181 203.786 214.133C203.925 215.156 189.234 226.082 188.955 239.518" stroke="black" stroke-width="1.2" stroke-miterlimit="10" stroke-linecap="round" stroke-linejoin="round"/>
<path d="M258.785 132.029C258.971 132.169 259.204 132.308 259.39 132.448C264.411 136.214 266.084 143.234 264.597 151.137" stroke="#6EDBFF" stroke-width="1.2" stroke-miterlimit="10" stroke-linecap="round" stroke-linejoin="round"/>
<path d="M261.434 160.808C260.132 163.551 258.505 166.294 256.506 168.897C254.367 171.733 252.043 174.244 249.579 176.336" stroke="#6EDBFF" stroke-width="1.2" stroke-miterlimit="10" stroke-linecap="round" stroke-linejoin="round"/>
<path d="M193.975 234.729C198.16 231.893 200.019 228.081 202.204 223.432C206.668 214.04 216.059 197.024 219.36 194.793C224.381 191.399 221.87 189.632 220.801 189.632C219.732 189.632 206.017 195.909 203.832 214.18C203.506 216.83 189.977 228.127 188.768 237.565C188.396 240.541 191.325 236.496 193.975 234.729Z" fill="white"/>
<path d="M216.755 176.987L228.983 183.402" stroke="#6EDBFF" stroke-width="1.2" stroke-miterlimit="10" stroke-linecap="round" stroke-linejoin="round"/>
<path d="M171.008 144.815C171.008 144.815 171.427 144.907 172.264 145.14C179.749 147.139 214.85 161.226 230.378 175.22C249.114 192.096 243.721 198.559 243.721 198.559C243.721 198.559 205.691 172.616 188.117 167.177C170.543 161.737 133.955 159.273 133.955 159.273L149.483 155.275" fill="#6EDBFF"/>
<path d="M182.725 124.126C182.725 124.126 178.68 125.613 198.532 142.908C204.483 148.069 236.701 169.316 248.789 182.008C263.387 197.303 252.322 195.816 252.322 195.816C252.322 195.816 241.536 173.872 211.131 158.948C194.44 150.765 160.223 130.821 160.223 130.821L175.472 136.4" fill="#6EDBFF"/>
<path d="M193.585 122.369C214.128 94.9913 218.944 63.9144 204.341 52.9571C189.738 41.9999 161.246 55.3115 140.703 82.6896C120.16 110.068 115.345 141.145 129.948 152.102C144.551 163.059 173.042 149.747 193.585 122.369Z" stroke="black" stroke-width="1.2" stroke-miterlimit="10" stroke-linecap="round" stroke-linejoin="round"/>
<path d="M229.354 186.843C230.238 187.494 231.075 188.145 231.912 188.842C232.609 189.818 233.399 190.655 234.329 191.353C242.326 197.35 256.924 191.353 267.013 177.916C270.267 173.546 272.685 168.944 274.126 164.527" stroke="black" stroke-width="1.2" stroke-miterlimit="10" stroke-linecap="round" stroke-linejoin="round"/>
<path d="M204.156 214.226C191.65 227.848 180.631 242.168 171.24 256.952C169.055 260.346 163.848 261.043 160.315 259.044C159.199 258.393 158.594 258.068 157.618 257.51" fill="#6EDBFF"/>
<path d="M204.156 214.226C191.65 227.848 180.631 242.168 171.24 256.952C169.055 260.346 163.848 261.043 160.315 259.044C159.199 258.393 158.594 258.068 157.618 257.51" stroke="black" stroke-width="1.2" stroke-miterlimit="10"/>
<path d="M202.577 215.807C191.093 228.406 181.005 241.563 172.125 255.604C169.94 258.998 165.058 261.043 161.06 259.509C159.618 258.951 158.363 257.975 157.015 257.231C153.435 255.278 152.04 250.815 154.086 247.282C157.852 240.819 161.897 234.45 166.22 228.174" stroke="black" stroke-width="1.2" stroke-miterlimit="10" stroke-linecap="round" stroke-linejoin="round"/>
<path d="M192.953 194.56C197.695 189.353 202.669 184.239 207.83 179.218" stroke="black" stroke-width="1.2" stroke-miterlimit="10" stroke-linecap="round" stroke-linejoin="round"/>
<path d="M175.052 255.511C177.284 262.857 181.701 272.155 190.023 278.059C205.551 289.031 222.055 248.956 221.962 244.028C221.869 239.099 219.312 234.264 218.661 221.014C218.057 207.764 229.401 187.633 220.428 189.632C216.104 190.609 211.967 194.468 209.224 198.094C203.552 205.672 203.459 212.181 203.784 214.133C203.923 215.156 189.232 226.082 188.953 239.518" stroke="black" stroke-width="1.2" stroke-miterlimit="10" stroke-linecap="round" stroke-linejoin="round"/>
<path d="M165.057 253.93C167.959 253.93 170.311 251.578 170.311 248.676C170.311 245.775 167.959 243.423 165.057 243.423C162.156 243.423 159.804 245.775 159.804 248.676C159.804 251.578 162.156 253.93 165.057 253.93Z" fill="black"/>
<path d="M202.297 109.853L181.608 97.9045C180.957 97.5326 180.121 97.6721 179.656 98.2765L166.592 115.292C165.848 116.269 165.894 117.57 166.685 118.5L181.887 135.656" fill="black"/>
<path d="M202.297 109.853L181.608 97.9045C180.957 97.5326 180.121 97.6721 179.656 98.2765L166.592 115.292C165.848 116.269 165.894 117.57 166.685 118.5L181.887 135.656" stroke="black" stroke-width="1.2" stroke-miterlimit="10" stroke-linecap="round" stroke-linejoin="round"/>
<path d="M180.604 112.748C184.696 107.057 185.174 100.402 181.672 97.8838C178.17 95.3654 172.013 97.9375 167.921 103.629C163.829 109.32 163.35 115.975 166.853 118.493C170.355 121.012 176.511 118.44 180.604 112.748Z" fill="white" stroke="black" stroke-width="1.2" stroke-miterlimit="10" stroke-linecap="round" stroke-linejoin="round"/>
<path d="M211.363 63.5009C215.826 78.0992 209.364 101.345 193.557 122.359C191.232 125.474 188.815 128.403 186.304 131.1" stroke="#6EDBFF" stroke-width="1.2" stroke-miterlimit="10" stroke-linecap="round" stroke-linejoin="round"/>
<path d="M126.841 138.445C105.641 137.19 85.9754 137.748 58.3129 143.373C56.5462 143.745 55.105 142.071 55.1515 140.212C55.4304 124.73 55.7559 109.248 56.0348 93.6738C56.0813 91.8142 57.5226 89.9545 59.2427 89.6756C81.6981 85.5843 105.548 88.6063 127.957 97.4396C129.724 98.137 131.072 99.8572 131.072 101.205C130.793 112.596 130.468 124.079 130.142 135.702C130.096 137.097 128.608 138.352 126.841 138.445Z" fill="#6EDBFF" stroke="white" stroke-width="1.2" stroke-miterlimit="10" stroke-linecap="round" stroke-linejoin="round"/>
<path d="M105.408 115.339C107.035 116.408 106.942 118.779 105.222 119.663C102.525 121.057 99.7823 122.545 97.0858 124.126C94.3893 125.707 91.6463 127.38 88.9498 129.1C87.2296 130.17 85.184 129.007 85.277 126.915C85.37 123.614 85.5094 120.313 85.6024 117.059C85.6954 113.758 85.8349 110.457 85.9279 107.203C86.0208 105.111 88.1595 103.902 89.7867 104.971C92.3902 106.691 94.9937 108.458 97.5972 110.178C100.247 111.899 102.851 113.665 105.408 115.339Z" fill="white"/>
<path d="M55.8945 99.5782C80.3956 94.929 106.477 97.3931 130.932 105.529Z" fill="#6EDBFF"/>
<path d="M55.8945 99.5782C80.3956 94.929 106.477 97.3931 130.932 105.529" stroke="white" stroke-width="1.2" stroke-miterlimit="10" stroke-linecap="round" stroke-linejoin="round"/>
<path d="M66.2629 93.3484C66.2629 94.2782 65.5655 95.0686 64.6822 95.1615C63.8453 95.2545 63.1479 94.6036 63.1479 93.7203C63.1479 92.7905 63.8453 91.9536 64.7287 91.8606C65.5655 91.7677 66.2629 92.4185 66.2629 93.3484Z" fill="white"/>
<path d="M62.1712 93.8598C62.1712 94.7896 61.4739 95.6264 60.5905 95.7194C59.7537 95.8589 59.0563 95.2545 59.1028 94.3247C59.1028 93.4413 59.8002 92.558 60.637 92.4185C61.4739 92.3255 62.1712 92.9764 62.1712 93.8598Z" fill="white"/>
<path d="M119.263 76.1001C101.038 70.9395 83.8365 64.2447 67.7505 56.2017C66.1233 55.3649 65.5654 53.5982 66.4487 52.2499C73.7944 40.906 80.4426 29.2831 86.3471 17.4743C87.0444 16.033 88.7646 15.4751 90.2059 16.1725C104.432 22.9603 119.681 28.5857 135.907 32.77C137.534 33.1884 138.511 34.7691 137.999 36.3033C134.001 49.0885 129.259 61.7342 123.819 74.2869C123.122 75.8211 121.076 76.6115 119.263 76.1001Z" fill="#6EDBFF"/>
<path d="M119.263 76.1001C101.038 70.9395 83.8365 64.2447 67.7505 56.2017C66.1233 55.3649 65.5654 53.5982 66.4487 52.2499C73.7944 40.906 80.4426 29.2831 86.3471 17.4743C87.0444 16.033 88.7646 15.4751 90.2059 16.1725C104.432 22.9603 119.681 28.5857 135.907 32.77C137.534 33.1884 138.511 34.7691 137.999 36.3033C134.001 49.0885 129.259 61.7342 123.819 74.2869C123.122 75.8211 121.076 76.6115 119.263 76.1001Z" stroke="white" stroke-width="1.2" stroke-miterlimit="10" stroke-linecap="round" stroke-linejoin="round"/>
<path d="M84.5342 20.5892C99.8764 29.3761 117.125 36.3498 135.861 40.8595Z" fill="#6EDBFF"/>
<path d="M84.5342 20.5892C99.8764 29.3761 117.125 36.3498 135.861 40.8595" stroke="white" stroke-width="1.2" stroke-miterlimit="10" stroke-linecap="round" stroke-linejoin="round"/>
<path d="M93.321 22.9602C94.0913 22.9602 94.7158 22.3358 94.7158 21.5655C94.7158 20.7952 94.0913 20.1707 93.321 20.1707C92.5507 20.1707 91.9263 20.7952 91.9263 21.5655C91.9263 22.3358 92.5507 22.9602 93.321 22.9602Z" fill="white"/>
<path d="M90.0197 21.2865C90.79 21.2865 91.4145 20.662 91.4145 19.8917C91.4145 19.1214 90.79 18.497 90.0197 18.497C89.2494 18.497 88.625 19.1214 88.625 19.8917C88.625 20.662 89.2494 21.2865 90.0197 21.2865Z" fill="white"/>
<path d="M110.848 40.627C108.849 40.0226 106.757 40.3016 105.083 41.3244C104.572 39.5112 103.224 37.9305 101.364 37.0937C98.3886 35.7919 94.9017 36.8147 93.1351 39.5577C89.1368 45.2762 95.1807 56.3411 96.4824 57.6894C96.5289 57.7824 96.6684 57.8289 96.8079 57.8289C98.8535 57.9219 113.312 54.7604 115.219 48.2051C116.334 44.9507 114.196 41.6498 110.848 40.627Z" fill="white"/>
<path d="M210.898 63.5009C214.338 74.6588 211.316 90.8844 202.669 107.296" stroke="#6EDBFF" stroke-width="1.2" stroke-miterlimit="10" stroke-linecap="round" stroke-linejoin="round"/>
<path d="M197.229 49.7394C199.833 50.3438 202.204 51.4131 204.296 52.9938C207.736 55.5508 210.061 59.2236 211.409 63.6868" stroke="black" stroke-width="1.2" stroke-miterlimit="10" stroke-linecap="round" stroke-linejoin="round"/>
<path d="M167.94 45.4621C169.335 45.7875 178.819 48.7165 185.003 46.9963" stroke="#6EDBFF" stroke-width="1.2" stroke-miterlimit="10" stroke-linecap="round" stroke-linejoin="round"/>
<path d="M196.113 16.1261C191.185 29.4227 188.21 40.1157 186.582 57.829C186.443 59.3167 185.467 60.2466 184.49 59.9211C176.122 57.1316 166.033 54.3421 156.223 51.5062C155.061 51.1807 153.945 49.693 153.759 48.1588C152.272 33.421 155.108 19.0551 159.71 4.59622C160.175 3.10849 161.849 1.52778 163.709 2.13217C173.425 5.2471 183.421 7.52519 193.603 10.8726C196.578 11.8954 196.439 14.6849 196.113 16.1261Z" fill="#6EDBFF" stroke="white" stroke-width="1.2" stroke-miterlimit="10" stroke-linecap="round" stroke-linejoin="round"/>
<path d="M159.849 52.529C158.176 36.071 161.616 19.2411 166.591 3.01555Z" fill="#6EDBFF"/>
<path d="M159.849 52.529C158.176 36.071 161.616 19.2411 166.591 3.01555" stroke="white" stroke-width="1.2" stroke-miterlimit="10" stroke-linecap="round" stroke-linejoin="round"/>
<path d="M156.409 42.9983C156.967 43.1842 157.479 43.8816 157.479 44.579C157.525 45.2764 157.06 45.7413 156.502 45.6018C155.944 45.4158 155.433 44.7185 155.387 44.0211C155.34 43.2772 155.805 42.8123 156.409 42.9983Z" fill="white"/>
<path d="M156.549 46.4386C157.107 46.6246 157.618 47.3219 157.665 48.0193C157.711 48.7167 157.293 49.1816 156.735 49.0421C156.177 48.9027 155.666 48.1588 155.619 47.4614C155.526 46.7176 155.991 46.2526 156.549 46.4386Z" fill="white"/>
<path d="M171.985 15.5683C170.962 20.078 167.428 36.5359 169.056 41.6965C169.102 41.7895 169.149 41.8825 169.195 41.9755L173.658 48.8097C173.984 49.3211 174.728 49.3211 175.053 48.8097L178.493 43.2307C178.586 43.0448 178.679 42.8588 178.679 42.6728C178.865 40.1623 180.028 22.9139 181.701 17.6604C181.934 16.963 181.515 16.2192 180.772 16.0797L173.379 14.592C172.729 14.499 172.124 14.9174 171.985 15.5683Z" fill="white"/>
<path d="M175.842 42.4868C175.935 42.3008 176.075 42.1148 176.028 41.8824C175.517 38.1631 177.423 21.1472 179.19 15.3822" stroke="#6EDBFF" stroke-width="1.2" stroke-miterlimit="10" stroke-linecap="round" stroke-linejoin="round"/>
<path d="M175.657 14.2199C175.052 14.1734 174.494 14.5919 174.355 15.1963C173.332 19.7989 169.845 36.5359 171.379 41.9289" stroke="#6EDBFF" stroke-width="1.2" stroke-miterlimit="10" stroke-linecap="round" stroke-linejoin="round"/>
<path d="M167.706 40.9991C169.101 41.3245 178.585 44.2535 184.768 42.5333" stroke="#6EDBFF" stroke-width="1.2" stroke-miterlimit="10" stroke-linecap="round" stroke-linejoin="round"/>
<path d="M213.409 181.822L220.336 174.43L232.424 180.799L229.355 187.773L226.519 188.191L211.41 183.31L213.409 181.822Z" fill="#6EDBFF"/>
<path d="M234.144 157.228C237.842 157.228 240.839 154.688 240.839 151.556C240.839 148.423 237.842 145.884 234.144 145.884C230.447 145.884 227.45 148.423 227.45 151.556C227.45 154.688 230.447 157.228 234.144 157.228Z" fill="black"/>
<path d="M222.242 181.822C223.683 182.752 225.124 183.728 226.519 184.751" stroke="black" stroke-width="1.2" stroke-miterlimit="10" stroke-linecap="round" stroke-linejoin="round"/>
<path d="M149.482 155.275C165.847 157.646 192.348 163.644 217.36 178.753" stroke="black" stroke-width="1.2" stroke-miterlimit="10" stroke-linecap="round" stroke-linejoin="round"/>
<path d="M228.75 186.424C229.82 187.215 230.843 188.005 231.912 188.842C232.609 189.818 233.4 190.655 234.329 191.352C242.326 197.35 256.924 191.352 267.013 177.916C277.055 164.527 278.775 148.813 270.779 142.815C269.431 141.793 267.896 141.142 266.223 140.77" stroke="black" stroke-width="1.2" stroke-miterlimit="10" stroke-linecap="round" stroke-linejoin="round"/>
<path d="M265.666 139.143L270.594 141.978L269.059 146.488L265.666 139.143Z" fill="black"/>
</svg>
